<?xml version="1.0" encoding="UTF-8"?>
<svg version="1.1" viewBox="0 0 682.667 682.667" xmlns="http://www.w3.org/2000/svg" xmlns:cc="http://creativecommons.org/ns#" xmlns:dc="http://purl.org/dc/elements/1.1/" xmlns:rdf="http://www.w3.org/1999/02/22-rdf-syntax-ns#"><metadata><rdf:RDF><cc:Work rdf:about=""><dc:format>image/svg+xml</dc:format><dc:type rdf:resource="http://purl.org/dc/dcmitype/StillImage"/><dc:title/></cc:Work></rdf:RDF></metadata><defs><clipPath id="clipPath851"><path d="m109.744 486.31 23.247-36.905s12.863-1.078 6.051 20.66c5.879 11.111 17.389 26.069 39.863 43.336v-245.852c-9.689-2.729-22.49-7.862-13.762-16.605h66.781c8.81 8.825-5.074 14.135-13.537 16.605v58.001s45.786-17.974 95.145-17.974c43.369 0 82.829 12.901 112.176 36.214 29.353 23.185 48.26 57.786 48.149 97.354 0.083 38.839-16.533 74.484-45.151 99.387-28.596 24.992-68.636 39.414-115.174 39.414-121.29 0-203.788-93.635-203.788-93.635m108.643-138.067v184.436c23.164 16.467 60.731 26.606 91.071 26.545 36.855-0.028 65.799-13.957 85.363-35.098 19.543-21.267 30.208-49.519 30.308-82.363-0.122-31.998-11.521-58.35-31.82-78.567-20.293-20.047-49.806-32.717-83.851-32.695h-0.167-7e-3c-37.906 0-69.812 7.353-90.897 17.742"/></clipPath></defs><g transform="matrix(1.33333 0 0 -1.33333 -55.5173 902.593)"><g style="fill:#fff"><g clip-path="url(#clipPath851)" style="fill:#fff"><path d="m104.745 245.944h374.114v339h-374.114z" style="fill:#fff"/></g></g></g></svg>
