<?xml version="1.0" encoding="UTF-8"?>
<svg id="White" style="enable-background:new 0 0 400 400" version="1.1" viewBox="0 0 400 400" xmlns="http://www.w3.org/2000/svg" xmlns:cc="http://creativecommons.org/ns#" xmlns:dc="http://purl.org/dc/elements/1.1/" xmlns:rdf="http://www.w3.org/1999/02/22-rdf-syntax-ns#"><metadata><rdf:RDF><cc:Work rdf:about=""><dc:format>image/svg+xml</dc:format><dc:type rdf:resource="http://purl.org/dc/dcmitype/StillImage"/><dc:title/></cc:Work></rdf:RDF></metadata><style type="text/css">.st0{fill:#FFFFFF;}</style><path d="m248.1 98.4004c-28.3 0-51.2988 22.9988-51.2988 51.2988 0 4 0.49883 7.90117 1.29883 11.7012-42.6-2.1-80.3992-22.5996-105.699-53.5996-4.4 7.6-6.90039 16.3988-6.90039 25.7988 0 17.8 9.10078 33.5012 22.8008 42.7012-8.4-0.3-16.3012-2.60039-23.2012-6.40039v0.69922c0 24.8 17.6996 45.6008 41.0996 50.3008-4.3 1.2-8.8 1.79883-13.5 1.79883-3.3 0-6.49961-0.29844-9.59961-0.89844 6.5 20.4 25.5004 35.1996 47.9004 35.5996-17.6 13.8-39.6992 22-63.6992 22-4.1 0-8.20117-0.20117-12.2012-0.70117 22.6 14.4 49.6 22.9004 78.5 22.9004 94.3 0 145.9-78.2004 145.9-145.9 0-2.2 3.9e-4 -4.39961-0.09961-6.59961 10-7.2 18.6996-16.2996 25.5996-26.5996-9.2 4.1-19.1 6.79961-29.5 8.09961 10.6-6.3 18.6996-16.4004 22.5996-28.4004-9.9 5.9-20.8996 10.1004-32.5996 12.4004-9.4-10-22.7004-16.1992-37.4004-16.1992z" style="fill:#fff;stroke-width:3.77953"/></svg>
