<?xml version="1.0" encoding="UTF-8"?>
<svg version="1.1" viewBox="0 0 256 256" xmlns="http://www.w3.org/2000/svg" xmlns:cc="http://creativecommons.org/ns#" xmlns:dc="http://purl.org/dc/elements/1.1/" xmlns:rdf="http://www.w3.org/1999/02/22-rdf-syntax-ns#"><metadata><rdf:RDF><cc:Work rdf:about=""><dc:format>image/svg+xml</dc:format><dc:type rdf:resource="http://purl.org/dc/dcmitype/StillImage"/><dc:title/></cc:Work></rdf:RDF></metadata><g transform="matrix(1.33333 0 0 -1.33333 0 256)"><path transform="matrix(.75 0 0 -.75 0 192)" d="m128 45.334s-73.3816-4.53e-4 -91.6816 4.93555c-10.0973 2.716-18.0494 10.7182-20.748 20.8809-4.90267 18.4187-4.90234 56.8496-4.90234 56.8496s-3.23e-4 38.4283 4.90234 56.8496c2.69867 10.1613 10.6507 18.1655 20.748 20.8828 18.3 4.93467 91.6816 4.9336 91.6816 4.9336s73.383 0.00107 91.6816-4.9336c10.0987-2.71733 18.0494-10.7215 20.748-20.8828 4.904-18.4213 4.90429-56.8496 4.90429-56.8496s-2.9e-4 -38.4309-4.90429-56.8496c-2.69867-10.1627-10.6494-18.1649-20.748-20.8809-18.2987-4.936-91.6816-4.93555-91.6816-4.93555zm-24 47.7734 61.334 34.8945-61.334 34.8906v-69.7852z" style="fill:#f9f9f9"/></g></svg>
